<mxfile host="65bd71144e">
    <diagram id="omTgl6SfI2lmWSWQNOPv" name="Page-1">
        <mxGraphModel dx="1313" dy="1744" grid="1" gridSize="10" guides="1" tooltips="1" connect="1" arrows="1" fold="1" page="1" pageScale="1" pageWidth="850" pageHeight="1100" math="0" shadow="0">
            <root>
                <mxCell id="0"/>
                <mxCell id="1" parent="0"/>
                <mxCell id="11" style="edgeStyle=none;html=1;exitX=1;exitY=0.25;exitDx=0;exitDy=0;entryX=0.001;entryY=0.113;entryDx=0;entryDy=0;entryPerimeter=0;fontSize=24;" parent="1" edge="1">
                    <mxGeometry relative="1" as="geometry">
                        <mxPoint x="269.44000000000005" y="202" as="sourcePoint"/>
                        <mxPoint x="530" y="205.0300000000002" as="targetPoint"/>
                    </mxGeometry>
                </mxCell>
                <mxCell id="18" value="Logging" style="edgeLabel;html=1;align=center;verticalAlign=middle;resizable=0;points=[];fontSize=17;" parent="11" vertex="1" connectable="0">
                    <mxGeometry x="-0.1579" y="-2" relative="1" as="geometry">
                        <mxPoint as="offset"/>
                    </mxGeometry>
                </mxCell>
                <mxCell id="7" value="&lt;font style=&quot;font-size: 24px;&quot;&gt;Doctor&lt;/font&gt;" style="html=1;dashed=0;whitespace=wrap;" parent="1" vertex="1">
                    <mxGeometry x="109.44" y="177" width="160" height="100" as="geometry"/>
                </mxCell>
                <mxCell id="26" style="edgeStyle=none;html=1;exitX=0.75;exitY=0;exitDx=0;exitDy=0;entryX=0.78;entryY=1.016;entryDx=0;entryDy=0;entryPerimeter=0;fontSize=17;" parent="1" source="13" target="19" edge="1">
                    <mxGeometry relative="1" as="geometry"/>
                </mxCell>
                <mxCell id="27" value="Viewing&lt;br&gt;Reports" style="edgeLabel;html=1;align=center;verticalAlign=middle;resizable=0;points=[];fontSize=17;" parent="26" vertex="1" connectable="0">
                    <mxGeometry x="-0.1653" y="1" relative="1" as="geometry">
                        <mxPoint as="offset"/>
                    </mxGeometry>
                </mxCell>
                <mxCell id="13" value="0.0" style="swimlane;fontStyle=0;childLayout=stackLayout;horizontal=1;startSize=40;fillColor=#6a00ff;horizontalStack=0;resizeParent=1;resizeParentMax=0;resizeLast=0;collapsible=0;marginBottom=0;swimlaneFillColor=#ffffff;fontColor=#ffffff;strokeColor=#3700CC;fontSize=20;" parent="1" vertex="1">
                    <mxGeometry x="530" y="127" width="380" height="220" as="geometry"/>
                </mxCell>
                <mxCell id="14" value="&lt;font size=&quot;1&quot; style=&quot;&quot;&gt;&lt;b style=&quot;font-size: 26px;&quot;&gt;Brain Stroke R&lt;/b&gt;&lt;/font&gt;&lt;span style=&quot;font-size: 26px;&quot;&gt;&lt;b&gt;ehabilitation&lt;br&gt;System&lt;br&gt;&lt;/b&gt;&lt;/span&gt;" style="text;html=1;strokeColor=none;fillColor=default;align=center;verticalAlign=middle;whiteSpace=wrap;rounded=0;" parent="13" vertex="1">
                    <mxGeometry y="40" width="380" height="180" as="geometry"/>
                </mxCell>
                <mxCell id="15" style="edgeStyle=none;html=1;exitX=0;exitY=0.5;exitDx=0;exitDy=0;entryX=1;entryY=0.75;entryDx=0;entryDy=0;fontSize=45;" parent="1" source="14" target="7" edge="1">
                    <mxGeometry relative="1" as="geometry"/>
                </mxCell>
                <mxCell id="17" value="Appointments" style="edgeLabel;html=1;align=center;verticalAlign=middle;resizable=0;points=[];fontSize=17;" parent="15" vertex="1" connectable="0">
                    <mxGeometry x="-0.1221" y="3" relative="1" as="geometry">
                        <mxPoint as="offset"/>
                    </mxGeometry>
                </mxCell>
                <mxCell id="20" style="edgeStyle=none;html=1;exitX=0.25;exitY=1;exitDx=0;exitDy=0;fontSize=17;" parent="1" edge="1">
                    <mxGeometry relative="1" as="geometry">
                        <mxPoint x="552" y="-130" as="sourcePoint"/>
                        <mxPoint x="550" y="130" as="targetPoint"/>
                    </mxGeometry>
                </mxCell>
                <mxCell id="21" value="Logging" style="edgeLabel;html=1;align=center;verticalAlign=middle;resizable=0;points=[];fontSize=17;" parent="20" vertex="1" connectable="0">
                    <mxGeometry x="-0.053" relative="1" as="geometry">
                        <mxPoint x="-1" as="offset"/>
                    </mxGeometry>
                </mxCell>
                <mxCell id="19" value="&lt;font style=&quot;font-size: 24px;&quot;&gt;Patient&lt;/font&gt;" style="html=1;dashed=0;whitespace=wrap;" parent="1" vertex="1">
                    <mxGeometry x="538" y="-230" width="352" height="100" as="geometry"/>
                </mxCell>
                <mxCell id="28" style="edgeStyle=none;html=1;entryX=0.78;entryY=1.016;entryDx=0;entryDy=0;entryPerimeter=0;fontSize=17;exitX=0.928;exitY=-0.015;exitDx=0;exitDy=0;exitPerimeter=0;" parent="1" edge="1">
                    <mxGeometry relative="1" as="geometry">
                        <mxPoint x="882.6400000000001" y="124.70000000000005" as="sourcePoint"/>
                        <mxPoint x="880.0000000000002" y="-127.39999999999986" as="targetPoint"/>
                    </mxGeometry>
                </mxCell>
                <mxCell id="30" value="Viewing&lt;br&gt;Prescription" style="edgeLabel;html=1;align=center;verticalAlign=middle;resizable=0;points=[];fontSize=17;" parent="28" vertex="1" connectable="0">
                    <mxGeometry x="0.4679" relative="1" as="geometry">
                        <mxPoint as="offset"/>
                    </mxGeometry>
                </mxCell>
                <mxCell id="32" style="edgeStyle=none;html=1;exitX=0;exitY=0.5;exitDx=0;exitDy=0;entryX=1;entryY=0.444;entryDx=0;entryDy=0;entryPerimeter=0;fontSize=17;" parent="1" edge="1">
                    <mxGeometry relative="1" as="geometry">
                        <mxPoint x="1179" y="232" as="sourcePoint"/>
                        <mxPoint x="909" y="227.92000000000007" as="targetPoint"/>
                    </mxGeometry>
                </mxCell>
                <mxCell id="33" value="Logging" style="edgeLabel;html=1;align=center;verticalAlign=middle;resizable=0;points=[];fontSize=17;" parent="32" vertex="1" connectable="0">
                    <mxGeometry x="0.2444" y="1" relative="1" as="geometry">
                        <mxPoint as="offset"/>
                    </mxGeometry>
                </mxCell>
                <mxCell id="63" style="edgeStyle=none;html=1;exitX=0;exitY=0;exitDx=0;exitDy=0;entryX=1;entryY=0;entryDx=0;entryDy=0;" edge="1" parent="1" source="31" target="14">
                    <mxGeometry relative="1" as="geometry"/>
                </mxCell>
                <mxCell id="64" value="Puting appointments" style="edgeLabel;html=1;align=center;verticalAlign=middle;resizable=0;points=[];" vertex="1" connectable="0" parent="63">
                    <mxGeometry x="0.3241" y="-4" relative="1" as="geometry">
                        <mxPoint as="offset"/>
                    </mxGeometry>
                </mxCell>
                <mxCell id="31" value="&lt;span style=&quot;font-size: 24px;&quot;&gt;Radiology&lt;br&gt;Center&lt;br&gt;&lt;/span&gt;" style="html=1;dashed=0;whitespace=wrap;" parent="1" vertex="1">
                    <mxGeometry x="1180" y="170" width="160" height="124" as="geometry"/>
                </mxCell>
                <mxCell id="34" style="edgeStyle=none;html=1;exitX=1;exitY=0.75;exitDx=0;exitDy=0;entryX=0;entryY=1;entryDx=0;entryDy=0;fontSize=17;" parent="1" edge="1">
                    <mxGeometry relative="1" as="geometry">
                        <mxPoint x="910" y="277" as="sourcePoint"/>
                        <mxPoint x="1180" y="276" as="targetPoint"/>
                    </mxGeometry>
                </mxCell>
                <mxCell id="35" value="Report Copy" style="edgeLabel;html=1;align=center;verticalAlign=middle;resizable=0;points=[];fontSize=17;" parent="34" vertex="1" connectable="0">
                    <mxGeometry x="0.114" y="-2" relative="1" as="geometry">
                        <mxPoint as="offset"/>
                    </mxGeometry>
                </mxCell>
                <mxCell id="37" style="edgeStyle=none;html=1;entryX=0.5;entryY=1;entryDx=0;entryDy=0;fontSize=17;" parent="1" edge="1">
                    <mxGeometry relative="1" as="geometry">
                        <mxPoint x="664" y="707" as="sourcePoint"/>
                        <mxPoint x="663.0000000000002" y="347" as="targetPoint"/>
                    </mxGeometry>
                </mxCell>
                <mxCell id="40" value="Booking" style="edgeLabel;html=1;align=center;verticalAlign=middle;resizable=0;points=[];fontSize=17;" parent="37" vertex="1" connectable="0">
                    <mxGeometry x="-0.0756" y="-1" relative="1" as="geometry">
                        <mxPoint y="-23" as="offset"/>
                    </mxGeometry>
                </mxCell>
                <mxCell id="58" style="edgeStyle=none;html=1;exitX=0.75;exitY=0;exitDx=0;exitDy=0;entryX=0.714;entryY=1.035;entryDx=0;entryDy=0;entryPerimeter=0;" edge="1" parent="1">
                    <mxGeometry relative="1" as="geometry">
                        <mxPoint x="785" y="703.2200000000003" as="sourcePoint"/>
                        <mxPoint x="786.3200000000002" y="353.3000000000002" as="targetPoint"/>
                    </mxGeometry>
                </mxCell>
                <mxCell id="60" value="ansering" style="edgeLabel;html=1;align=center;verticalAlign=middle;resizable=0;points=[];" vertex="1" connectable="0" parent="58">
                    <mxGeometry x="0.4752" y="1" relative="1" as="geometry">
                        <mxPoint as="offset"/>
                    </mxGeometry>
                </mxCell>
                <mxCell id="36" value="&lt;span style=&quot;font-size: 24px;&quot;&gt;Guest&lt;/span&gt;" style="html=1;dashed=0;whitespace=wrap;" parent="1" vertex="1">
                    <mxGeometry x="560" y="703.22" width="320" height="100" as="geometry"/>
                </mxCell>
                <mxCell id="46" style="edgeStyle=none;html=1;exitX=0.25;exitY=0;exitDx=0;exitDy=0;entryX=0;entryY=0.75;entryDx=0;entryDy=0;fontSize=17;" parent="1" source="47" edge="1">
                    <mxGeometry relative="1" as="geometry">
                        <mxPoint x="530" y="295" as="targetPoint"/>
                    </mxGeometry>
                </mxCell>
                <mxCell id="54" value="Logging" style="edgeLabel;html=1;align=center;verticalAlign=middle;resizable=0;points=[];fontSize=17;" parent="46" vertex="1" connectable="0">
                    <mxGeometry x="0.063" y="-1" relative="1" as="geometry">
                        <mxPoint as="offset"/>
                    </mxGeometry>
                </mxCell>
                <mxCell id="47" value="&lt;font style=&quot;font-size: 24px;&quot;&gt;Radiologist&lt;/font&gt;" style="html=1;dashed=0;whitespace=wrap;" parent="1" vertex="1">
                    <mxGeometry x="260" y="644" width="160" height="100" as="geometry"/>
                </mxCell>
                <mxCell id="48" style="edgeStyle=none;html=1;exitX=0.101;exitY=1.013;exitDx=0;exitDy=0;entryX=0.581;entryY=-0.02;entryDx=0;entryDy=0;fontSize=17;entryPerimeter=0;exitPerimeter=0;" parent="1" source="14" edge="1">
                    <mxGeometry relative="1" as="geometry">
                        <mxPoint x="569.9000000000001" y="340" as="sourcePoint"/>
                        <mxPoint x="374.96000000000004" y="642" as="targetPoint"/>
                    </mxGeometry>
                </mxCell>
                <mxCell id="55" value="Assigned&lt;br&gt;Cases" style="edgeLabel;html=1;align=center;verticalAlign=middle;resizable=0;points=[];fontSize=17;" parent="48" vertex="1" connectable="0">
                    <mxGeometry x="0.3099" y="-1" relative="1" as="geometry">
                        <mxPoint x="-1" as="offset"/>
                    </mxGeometry>
                </mxCell>
                <mxCell id="49" style="edgeStyle=none;html=1;exitX=0.25;exitY=0;exitDx=0;exitDy=0;entryX=0.908;entryY=1.004;entryDx=0;entryDy=0;fontSize=17;entryPerimeter=0;" parent="1" edge="1">
                    <mxGeometry relative="1" as="geometry">
                        <mxPoint x="864.04" y="346.9999999999998" as="targetPoint"/>
                        <mxPoint x="999" y="650.28" as="sourcePoint"/>
                    </mxGeometry>
                </mxCell>
                <mxCell id="52" value="Registering&lt;br&gt;users" style="edgeLabel;html=1;align=center;verticalAlign=middle;resizable=0;points=[];fontSize=17;" parent="49" vertex="1" connectable="0">
                    <mxGeometry x="-0.064" relative="1" as="geometry">
                        <mxPoint as="offset"/>
                    </mxGeometry>
                </mxCell>
                <mxCell id="50" value="&lt;font style=&quot;font-size: 24px;&quot;&gt;Receptionist&lt;/font&gt;" style="html=1;dashed=0;whitespace=wrap;" parent="1" vertex="1">
                    <mxGeometry x="970" y="644" width="160" height="100" as="geometry"/>
                </mxCell>
                <mxCell id="51" style="edgeStyle=none;html=1;exitX=1;exitY=0.75;exitDx=0;exitDy=0;entryX=0.581;entryY=-0.02;entryDx=0;entryDy=0;fontSize=17;entryPerimeter=0;" parent="1" source="14" edge="1">
                    <mxGeometry relative="1" as="geometry">
                        <mxPoint x="1274.9" y="350" as="sourcePoint"/>
                        <mxPoint x="1079.96" y="652" as="targetPoint"/>
                    </mxGeometry>
                </mxCell>
                <mxCell id="53" value="Registering&lt;br&gt;Confirmation" style="edgeLabel;html=1;align=center;verticalAlign=middle;resizable=0;points=[];fontSize=17;" parent="51" vertex="1" connectable="0">
                    <mxGeometry x="-0.3439" relative="1" as="geometry">
                        <mxPoint as="offset"/>
                    </mxGeometry>
                </mxCell>
                <mxCell id="56" style="edgeStyle=none;html=1;exitX=1;exitY=0.25;exitDx=0;exitDy=0;entryX=0.001;entryY=0.17;entryDx=0;entryDy=0;entryPerimeter=0;" edge="1" parent="1">
                    <mxGeometry relative="1" as="geometry">
                        <mxPoint x="909.9999999999995" y="218" as="sourcePoint"/>
                        <mxPoint x="1180.1600000000003" y="197.07999999999993" as="targetPoint"/>
                    </mxGeometry>
                </mxCell>
                <mxCell id="57" value="Acknologment" style="edgeLabel;html=1;align=center;verticalAlign=middle;resizable=0;points=[];" vertex="1" connectable="0" parent="56">
                    <mxGeometry x="0.2245" y="-2" relative="1" as="geometry">
                        <mxPoint as="offset"/>
                    </mxGeometry>
                </mxCell>
                <mxCell id="67" style="edgeStyle=none;html=1;fontSize=17;" edge="1" parent="1">
                    <mxGeometry relative="1" as="geometry">
                        <mxPoint x="690" y="-130" as="sourcePoint"/>
                        <mxPoint x="690" y="129.99999999999977" as="targetPoint"/>
                    </mxGeometry>
                </mxCell>
                <mxCell id="68" value="Booking" style="edgeLabel;html=1;align=center;verticalAlign=middle;resizable=0;points=[];fontSize=17;" vertex="1" connectable="0" parent="67">
                    <mxGeometry x="-0.053" relative="1" as="geometry">
                        <mxPoint x="-1" as="offset"/>
                    </mxGeometry>
                </mxCell>
            </root>
        </mxGraphModel>
    </diagram>
</mxfile>